<?xml version="1.0" encoding="iso-8859-1"?>
<!-- Generator: Adobe Illustrator 19.0.0, SVG Export Plug-In . SVG Version: 6.00 Build 0)  -->
<svg version="1.1" id="Capa_1" xmlns="http://www.w3.org/2000/svg" xmlns:xlink="http://www.w3.org/1999/xlink" x="0px" y="0px"
	 viewBox="0 0 480 480" style="enable-background:new 0 0 480 480;" xml:space="preserve">
<g>
	<path style="fill:#666666;" d="M371.944,158.896L239.976,81.264L106.6,158.8l-8.048-13.832l137.424-79.88
		c2.496-1.456,5.592-1.448,8.08,0.024l136,80L371.944,158.896z"/>
	<path style="fill:#666666;" d="M161.752,301L104,228.808L46.248,301l-12.496-9.992l64-80c3.048-3.8,9.456-3.8,12.496,0l64,80
		L161.752,301z"/>
	<rect x="160" y="360" style="fill:#666666;" width="16" height="48"/>
	<path style="fill:#666666;" d="M433.752,301L376,228.808L318.248,301l-12.496-9.992l64-80c3.048-3.8,9.456-3.8,12.496,0l64,80
		L433.752,301z"/>
	<rect x="304" y="360" style="fill:#666666;" width="16" height="48"/>
	<rect x="432" y="360" style="fill:#666666;" width="16" height="48"/>
	<rect x="32" y="360" style="fill:#666666;" width="16" height="48"/>
</g>
<polygon style="fill:#FF9F1C;" points="80,400 40,400 0,400 0,480 80,480 "/>
<polygon style="fill:#FFBF69;" points="128,480 208,480 208,400 168,400 128,400 "/>
<polygon style="fill:#60C4C2;" points="272,480 352,480 352,400 312,400 272,400 "/>
<polygon style="fill:#CBF3F0;" points="400,480 480,480 480,400 440,400 400,400 "/>
<polygon style="fill:#FF9F1C;" points="80,288 40,288 0,288 0,368 40,368 80,368 "/>
<polygon style="fill:#FFBF69;" points="128,368 168,368 208,368 208,288 168,288 128,288 "/>
<polygon style="fill:#FF9F1C;" points="144,144 64,144 64,224 104,224 144,224 "/>
<polygon style="fill:#E8EDED;" points="239.8,72 240.2,72 240,71.88 "/>
<g>
	<polygon style="fill:#60C4C2;" points="280,0 200,0 200,80 239.752,80 240,79.856 240.248,80 280,80 	"/>
	<polygon style="fill:#60C4C2;" points="416,144 376,144 336,144 336,224 376,224 416,224 	"/>
	<polygon style="fill:#60C4C2;" points="272,368 312,368 352,368 352,288 312,288 272,288 	"/>
</g>
<polygon style="fill:#CBF3F0;" points="400,288 400,368 440,368 480,368 480,288 440,288 "/>
<g>
</g>
<g>
</g>
<g>
</g>
<g>
</g>
<g>
</g>
<g>
</g>
<g>
</g>
<g>
</g>
<g>
</g>
<g>
</g>
<g>
</g>
<g>
</g>
<g>
</g>
<g>
</g>
<g>
</g>
</svg>
